<svg width="1440" height="716" viewBox="0 0 1440 716" fill="none" xmlns="http://www.w3.org/2000/svg">
<path d="M720.2 358.1C720.3 358.2 720.2 358.2 720.2 358.2C720.1 358.2 720.1 358.1 720.1 358.1C720.1 358 720.2 358 720.2 358C720.3 358 720.4 358.1 720.4 358.2C720.4 358.3 720.3 358.4 720.2 358.4C720.1 358.4 720 358.3 720 358.2C720 358 720.1 357.9 720.3 357.9C720.5 357.9 720.7 358.1 720.7 358.3C720.7 358.5 720.5 358.7 720.3 358.7C720 358.7 719.8 358.5 719.8 358.2C719.8 357.9 720.1 357.6 720.4 357.6C720.8 357.6 721.1 357.9 721.1 358.3C721.1 358.8 720.7 359.2 720.2 359.2C719.6 359.2 719.1 358.7 719.1 358.1C719.1 357.4 719.7 356.8 720.4 356.8C721.3 356.8 721.9 357.5 721.9 358.3C721.9 359.3 721.1 360.1 720.1 360.1C718.9 360.1 717.9 359.1 717.9 357.9C717.9 356.4 719.1 355.2 720.6 355.2C722.4 355.2 723.8 356.6 723.8 358.4C723.8 360.5 722.1 362.2 720 362.2C717.5 362.2 715.4 360.1 715.4 357.6C715.4 354.6 717.9 352.1 720.9 352.1C724.6 352.1 727.5 355.1 727.5 358.7C727.5 363.1 723.9 366.6 719.6 366.6C714.3 366.6 710.1 362.3 710.1 357.1C710.1 350.8 715.2 345.7 721.5 345.7C729.1 345.7 735.2 351.8 735.2 359.4C735.2 368.5 727.8 375.9 718.7 375.9C707.8 375.9 698.9 367.1 698.9 356.1C698.9 343 709.5 332.4 722.6 332.4C738.3 332.4 751.1 345.1 751.1 360.9C751.1 379.8 735.8 395 717 395C694.4 395 676 376.7 676 354C676 326.8 698 304.8 725.2 304.8C757.8 304.8 784.2 331.2 784.2 363.8C784.2 402.9 752.5 434.6 713.4 434.6C666.5 434.6 628.4 396.6 628.4 349.6C628.4 293.3 674 247.6 730.4 247.6C798 247.6 852.8 302.4 852.8 370C852.8 451.1 787.1 516.8 706 516.8C608.7 516.8 529.8 437.9 529.8 340.6C529.8 223.8 624.5 129.2 741.2 129.2C881.3 129.2 994.9 242.8 994.9 382.9C994.9 551 858.6 687.4 690.4 687.4C488.6 687.4 325.1 523.8 325.1 322.1C325.1 79.9999 521.4 -116.3 763.5 -116.3C1054.1 -116.3 1289.6 119.2 1289.6 409.8C1289.6 758.5 1007 1041.1 658.3 1041.1C239.7 1041.2 -99.5 702 -99.5 283.6C-99.4999 -218.5 307.5 -625.5 809.6 -625.5C1412.1 -625.5 1900.5 -137.1 1900.5 465.4M720.2 358.1C720.2 358.1 720.1 358.1 720.2 358.1C720.1 358.1 720.2 358.1 720.2 358.1ZM720.2 358.1C720.2 358.1 720.2 358.2 720.2 358.1V358.1ZM720.2 358.1C720.1 358.2 720.1 358.1 720.2 358.1V358.1ZM720.2 358.1C720.1 358.1 720.1 358 720.2 358.1V358.1ZM720.2 358.1C720.2 358 720.3 358.1 720.2 358.1V358.1Z" stroke="#969696" stroke-miterlimit="10"/>
</svg>
